<svg width="52" height="52" fill="none" xmlns="http://www.w3.org/2000/svg"><g filter="url(#filter0_d)"><path d="M40.724 15.677l.264-.864-.64-.637-2.642-2.634-.653-.65-.874.287a37.412 37.412 0 00-4.272 1.7l-.858-.354a39.36 39.36 0 00-1.937-4.23L28.69 7.5h-5.554l-.416.824a37.243 37.243 0 00-1.815 4.221l-.863.356a39.61 39.61 0 00-4.359-1.62l-.863-.264-.637.638-2.638 2.641-.652.652.288.877a37.567 37.567 0 001.7 4.27l-.354.858a39.929 39.929 0 00-4.227 1.93l-.799.422v5.558l.823.417c1.37.693 2.781 1.3 4.224 1.818l.354.857a40.005 40.005 0 00-1.623 4.36l-.265.863.639.638 2.643 2.64.653.654.878-.29a38.174 38.174 0 004.264-1.702l.86.356a39.078 39.078 0 001.94 4.231l.423.795h5.555l.416-.824a37.478 37.478 0 001.815-4.22l.862-.357a39.982 39.982 0 004.353 1.624l.863.266.639-.638 2.642-2.641.654-.653-.289-.877a37.166 37.166 0 00-1.704-4.27l.354-.858a39.51 39.51 0 004.23-1.939l.797-.423v-5.56l-.825-.416a37.44 37.44 0 00-4.216-1.81l-.356-.86a39.435 39.435 0 001.621-4.367zm-9.73 10.993h0l-.002.014a5.24 5.24 0 01-1.153 2.788 5.027 5.027 0 01-2.457 1.642 4.907 4.907 0 01-2.92-.038 5.036 5.036 0 01-2.416-1.707 5.291 5.291 0 01-.443-5.78 5.097 5.097 0 012.13-2.075 4.919 4.919 0 012.88-.505l.008.001.007.001a4.942 4.942 0 013.312 1.89 5.211 5.211 0 011.053 3.77z" stroke="#A2FF6A" stroke-width="3"/></g><defs><filter id="filter0_d" x="0" y="0" width="52" height="52" filterUnits="userSpaceOnUse" color-interpolation-filters="sRGB"><feFlood flood-opacity="0" result="BackgroundImageFix"/><feColorMatrix in="SourceAlpha" values="0 0 0 0 0 0 0 0 0 0 0 0 0 0 0 0 0 0 127 0"/><feOffset/><feGaussianBlur stdDeviation="3"/><feColorMatrix values="0 0 0 0 0.470588 0 0 0 0 0.968627 0 0 0 0 0.227451 0 0 0 0.5 0"/><feBlend in2="BackgroundImageFix" result="effect1_dropShadow"/><feBlend in="SourceGraphic" in2="effect1_dropShadow" result="shape"/></filter></defs></svg>