<svg width="15" height="19" fill="none" xmlns="http://www.w3.org/2000/svg"><path fill-rule="evenodd" clip-rule="evenodd" d="M4.514 3.907C3.95 4.7 3.75 5.692 3.75 6.333h-2.5c0-1.047.3-2.59 1.236-3.906C3.467 1.045 5.093 0 7.5 0s4.033 1.045 5.014 2.427c.936 1.317 1.236 2.86 1.236 3.906h-2.5c0-.641-.2-1.632-.764-2.426-.519-.73-1.393-1.374-2.986-1.374-1.593 0-2.467.644-2.986 1.374zM3.75 6.333H0V19h15V6.333H3.75zm3.75 3.749c-.94 0-1.7.771-1.7 1.723 0 .638.341 1.195.85 1.493v1.953h1.7v-1.953c.508-.298.85-.855.85-1.493a1.71 1.71 0 00-1.7-1.723z" fill="#FF7C7C"/></svg>