<svg width="1280" height="60" fill="none" xmlns="http://www.w3.org/2000/svg"><g clip-path="url(#clip0)"><path opacity=".95" d="M0 0h1280v60H0V0z" fill="#2C3143"/><path opacity=".2" transform="matrix(1 0 0 -1 0 62)" fill="url(#paint0_radial)" d="M0 0h1280v62H0z"/><g opacity=".1" filter="url(#filter0_f)"><path d="M48.21 1L0 60h24.105l48.21-59H48.212z" fill="url(#paint1_radial)"/><path d="M96.421 1l-48.21 59h24.105l48.21-59H96.421z" fill="url(#paint2_radial)"/><path d="M144.632 1l-48.21 59h24.104l48.211-59h-24.105z" fill="url(#paint3_radial)"/><path d="M192.842 1l-48.21 59h24.105l48.21-59h-24.105z" fill="url(#paint4_radial)"/><path d="M241.053 1l-48.211 59h24.105l48.211-59h-24.105z" fill="url(#paint5_radial)"/><path d="M289.263 1l-48.21 59h24.105l48.21-59h-24.105z" fill="url(#paint6_radial)"/><path d="M337.474 1l-48.211 59h24.105l48.211-59h-24.105z" fill="url(#paint7_radial)"/><path d="M385.684 1l-48.21 59h24.105l48.21-59h-24.105z" fill="url(#paint8_radial)"/><path d="M433.895 1l-48.211 59h24.105L458 1h-24.105z" fill="url(#paint9_radial)"/></g><path opacity=".2" d="M0 0h1280v2H0V0z" fill="#00D7FF"/></g><defs><radialGradient id="paint0_radial" cx="0" cy="0" r="1" gradientUnits="userSpaceOnUse" gradientTransform="matrix(0 -62 640 0 640 62)"><stop stop-color="#00FFD1"/><stop offset="1" stop-color="#000AFF" stop-opacity="0"/></radialGradient><radialGradient id="paint1_radial" cx="0" cy="0" r="1" gradientUnits="userSpaceOnUse" gradientTransform="matrix(229 0 0 55.9156 229 60)"><stop stop-color="#00FF85"/><stop offset="1" stop-color="#CF0" stop-opacity="0"/></radialGradient><radialGradient id="paint2_radial" cx="0" cy="0" r="1" gradientUnits="userSpaceOnUse" gradientTransform="matrix(229 0 0 55.9156 229 60)"><stop stop-color="#00FF85"/><stop offset="1" stop-color="#CF0" stop-opacity="0"/></radialGradient><radialGradient id="paint3_radial" cx="0" cy="0" r="1" gradientUnits="userSpaceOnUse" gradientTransform="matrix(229 0 0 55.9156 229 60)"><stop stop-color="#00FF85"/><stop offset="1" stop-color="#CF0" stop-opacity="0"/></radialGradient><radialGradient id="paint4_radial" cx="0" cy="0" r="1" gradientUnits="userSpaceOnUse" gradientTransform="matrix(229 0 0 55.9156 229 60)"><stop stop-color="#00FF85"/><stop offset="1" stop-color="#CF0" stop-opacity="0"/></radialGradient><radialGradient id="paint5_radial" cx="0" cy="0" r="1" gradientUnits="userSpaceOnUse" gradientTransform="matrix(229 0 0 55.9156 229 60)"><stop stop-color="#00FF85"/><stop offset="1" stop-color="#CF0" stop-opacity="0"/></radialGradient><radialGradient id="paint6_radial" cx="0" cy="0" r="1" gradientUnits="userSpaceOnUse" gradientTransform="matrix(229 0 0 55.9156 229 60)"><stop stop-color="#00FF85"/><stop offset="1" stop-color="#CF0" stop-opacity="0"/></radialGradient><radialGradient id="paint7_radial" cx="0" cy="0" r="1" gradientUnits="userSpaceOnUse" gradientTransform="matrix(229 0 0 55.9156 229 60)"><stop stop-color="#00FF85"/><stop offset="1" stop-color="#CF0" stop-opacity="0"/></radialGradient><radialGradient id="paint8_radial" cx="0" cy="0" r="1" gradientUnits="userSpaceOnUse" gradientTransform="matrix(229 0 0 55.9156 229 60)"><stop stop-color="#00FF85"/><stop offset="1" stop-color="#CF0" stop-opacity="0"/></radialGradient><radialGradient id="paint9_radial" cx="0" cy="0" r="1" gradientUnits="userSpaceOnUse" gradientTransform="matrix(229 0 0 55.9156 229 60)"><stop stop-color="#00FF85"/><stop offset="1" stop-color="#CF0" stop-opacity="0"/></radialGradient><clipPath id="clip0"><path fill="#fff" d="M0 0h1280v62H0z"/></clipPath><filter id="filter0_f" x="-5" y="-4" width="468" height="69" filterUnits="userSpaceOnUse" color-interpolation-filters="sRGB"><feFlood flood-opacity="0" result="BackgroundImageFix"/><feBlend in="SourceGraphic" in2="BackgroundImageFix" result="shape"/><feGaussianBlur stdDeviation="2.5" result="effect1_foregroundBlur"/></filter></defs></svg>