<svg width="28" height="25" fill="none" xmlns="http://www.w3.org/2000/svg"><path opacity=".5" fill-rule="evenodd" clip-rule="evenodd" d="M11.928 11.396c-.737.528-1.595.83-2.51.83-2.754 0-4.987-2.736-4.987-6.113C4.431 2.737 5.165 0 9.418 0c1.03 0 1.854.16 2.51.452-2.054.912-2.475 3.103-2.475 5.661 0 2.254.995 4.223 2.475 5.283zm-4.864 2.83a9.498 9.498 0 01-1.57-.945C.091 13.988.08 15.18.031 19.803c-.004.412-.009.851-.018 1.32-.008.468-.012.492-.014.438v.618s.923 1.877 5.62 2.569c-.164-.476-.504-1.549-.598-2.57v-.617c.001.054.005.03.014-.438.007-.374.012-.728.016-1.063.047-3.416.067-4.906 2.012-5.834z" fill="#fff"/><path d="M18.583 12.227c2.754 0 4.986-2.737 4.986-6.114 0-3.376-.733-6.113-4.986-6.113s-4.986 2.737-4.986 6.113c0 3.377 2.232 6.114 4.986 6.114zm9.407 9.087c-.093-5.882.01-7.263-5.483-8.033 0 0-2.014 1.563-3.924 1.563-1.91 0-3.924-1.563-3.924-1.563-5.76 1.05-5.373 2.115-5.48 7.842-.008.468-.012.492-.014.438l.001.618S10.552 25 18.583 25C26.613 25 28 22.179 28 22.179v-.457c-.002.033-.005-.032-.01-.408z" fill="#fff"/></svg>