<svg width="1280" height="100" fill="none" xmlns="http://www.w3.org/2000/svg"><path opacity=".95" fill="#2C3143" d="M0 0h1280v96H0z"/><path opacity=".2" fill="url(#paint0_radial)" d="M0 33h1280v63H0z"/><path opacity=".2" fill="#00D7FF" d="M0 94h1280v2H0z"/><g opacity=".1" filter="url(#filter0_f)"><path d="M48.21 0L0 95h24.105l48.21-95H48.212z" fill="url(#paint1_radial)"/><path d="M96.421 0l-48.21 95h24.105l48.21-95H96.421z" fill="url(#paint2_radial)"/><path d="M144.632 0l-48.21 95h24.104l48.211-95h-24.105z" fill="url(#paint3_radial)"/><path d="M192.842 0l-48.21 95h24.105l48.21-95h-24.105z" fill="url(#paint4_radial)"/><path d="M241.053 0l-48.211 95h24.105l48.211-95h-24.105z" fill="url(#paint5_radial)"/><path d="M289.263 0l-48.21 95h24.105l48.21-95h-24.105z" fill="url(#paint6_radial)"/><path d="M337.474 0l-48.211 95h24.105l48.211-95h-24.105z" fill="url(#paint7_radial)"/><path d="M385.684 0l-48.21 95h24.105l48.21-95h-24.105z" fill="url(#paint8_radial)"/><path d="M433.895 0l-48.211 95h24.105L458 0h-24.105z" fill="url(#paint9_radial)"/></g><g opacity=".1" filter="url(#filter1_f)"><path d="M1231.79 95L1280 0h-24.11l-48.21 95h24.11z" fill="url(#paint10_radial)"/><path d="M1183.58 95l48.21-95h-24.11l-48.21 95h24.11z" fill="url(#paint11_radial)"/><path d="M1135.37 95l48.21-95h-24.11l-48.21 95h24.11z" fill="url(#paint12_radial)"/><path d="M1087.16 95l48.21-95h-24.11l-48.21 95h24.11z" fill="url(#paint13_radial)"/><path d="M1038.95 95l48.21-95h-24.11l-48.21 95h24.11z" fill="url(#paint14_radial)"/><path d="M990.737 95l48.213-95h-24.11l-48.208 95h24.105z" fill="url(#paint15_radial)"/><path d="M942.526 95l48.211-95h-24.105l-48.211 95h24.105z" fill="url(#paint16_radial)"/><path d="M894.316 95l48.21-95h-24.105l-48.21 95h24.105z" fill="url(#paint17_radial)"/><path d="M846.105 95l48.211-95h-24.105L822 95h24.105z" fill="url(#paint18_radial)"/></g><defs><radialGradient id="paint0_radial" cx="0" cy="0" r="1" gradientUnits="userSpaceOnUse" gradientTransform="matrix(0 -63 640 0 640 96)"><stop stop-color="#0FF"/><stop offset="1" stop-color="#000AFF" stop-opacity="0"/></radialGradient><radialGradient id="paint1_radial" cx="0" cy="0" r="1" gradientUnits="userSpaceOnUse" gradientTransform="matrix(458 0 0 95 0 95)"><stop stop-color="#00FF85"/><stop offset="1" stop-color="#CF0" stop-opacity="0"/></radialGradient><radialGradient id="paint2_radial" cx="0" cy="0" r="1" gradientUnits="userSpaceOnUse" gradientTransform="matrix(458 0 0 95 0 95)"><stop stop-color="#00FF85"/><stop offset="1" stop-color="#CF0" stop-opacity="0"/></radialGradient><radialGradient id="paint3_radial" cx="0" cy="0" r="1" gradientUnits="userSpaceOnUse" gradientTransform="matrix(458 0 0 95 0 95)"><stop stop-color="#00FF85"/><stop offset="1" stop-color="#CF0" stop-opacity="0"/></radialGradient><radialGradient id="paint4_radial" cx="0" cy="0" r="1" gradientUnits="userSpaceOnUse" gradientTransform="matrix(458 0 0 95 0 95)"><stop stop-color="#00FF85"/><stop offset="1" stop-color="#CF0" stop-opacity="0"/></radialGradient><radialGradient id="paint5_radial" cx="0" cy="0" r="1" gradientUnits="userSpaceOnUse" gradientTransform="matrix(458 0 0 95 0 95)"><stop stop-color="#00FF85"/><stop offset="1" stop-color="#CF0" stop-opacity="0"/></radialGradient><radialGradient id="paint6_radial" cx="0" cy="0" r="1" gradientUnits="userSpaceOnUse" gradientTransform="matrix(458 0 0 95 0 95)"><stop stop-color="#00FF85"/><stop offset="1" stop-color="#CF0" stop-opacity="0"/></radialGradient><radialGradient id="paint7_radial" cx="0" cy="0" r="1" gradientUnits="userSpaceOnUse" gradientTransform="matrix(458 0 0 95 0 95)"><stop stop-color="#00FF85"/><stop offset="1" stop-color="#CF0" stop-opacity="0"/></radialGradient><radialGradient id="paint8_radial" cx="0" cy="0" r="1" gradientUnits="userSpaceOnUse" gradientTransform="matrix(458 0 0 95 0 95)"><stop stop-color="#00FF85"/><stop offset="1" stop-color="#CF0" stop-opacity="0"/></radialGradient><radialGradient id="paint9_radial" cx="0" cy="0" r="1" gradientUnits="userSpaceOnUse" gradientTransform="matrix(458 0 0 95 0 95)"><stop stop-color="#00FF85"/><stop offset="1" stop-color="#CF0" stop-opacity="0"/></radialGradient><radialGradient id="paint10_radial" cx="0" cy="0" r="1" gradientUnits="userSpaceOnUse" gradientTransform="matrix(-458 0 0 -87.4556 1280 95)"><stop stop-color="#00FF85"/><stop offset="1" stop-color="#CF0" stop-opacity="0"/></radialGradient><radialGradient id="paint11_radial" cx="0" cy="0" r="1" gradientUnits="userSpaceOnUse" gradientTransform="matrix(-458 0 0 -87.4556 1280 95)"><stop stop-color="#00FF85"/><stop offset="1" stop-color="#CF0" stop-opacity="0"/></radialGradient><radialGradient id="paint12_radial" cx="0" cy="0" r="1" gradientUnits="userSpaceOnUse" gradientTransform="matrix(-458 0 0 -87.4556 1280 95)"><stop stop-color="#00FF85"/><stop offset="1" stop-color="#CF0" stop-opacity="0"/></radialGradient><radialGradient id="paint13_radial" cx="0" cy="0" r="1" gradientUnits="userSpaceOnUse" gradientTransform="matrix(-458 0 0 -87.4556 1280 95)"><stop stop-color="#00FF85"/><stop offset="1" stop-color="#CF0" stop-opacity="0"/></radialGradient><radialGradient id="paint14_radial" cx="0" cy="0" r="1" gradientUnits="userSpaceOnUse" gradientTransform="matrix(-458 0 0 -87.4556 1280 95)"><stop stop-color="#00FF85"/><stop offset="1" stop-color="#CF0" stop-opacity="0"/></radialGradient><radialGradient id="paint15_radial" cx="0" cy="0" r="1" gradientUnits="userSpaceOnUse" gradientTransform="matrix(-458 0 0 -87.4556 1280 95)"><stop stop-color="#00FF85"/><stop offset="1" stop-color="#CF0" stop-opacity="0"/></radialGradient><radialGradient id="paint16_radial" cx="0" cy="0" r="1" gradientUnits="userSpaceOnUse" gradientTransform="matrix(-458 0 0 -87.4556 1280 95)"><stop stop-color="#00FF85"/><stop offset="1" stop-color="#CF0" stop-opacity="0"/></radialGradient><radialGradient id="paint17_radial" cx="0" cy="0" r="1" gradientUnits="userSpaceOnUse" gradientTransform="matrix(-458 0 0 -87.4556 1280 95)"><stop stop-color="#00FF85"/><stop offset="1" stop-color="#CF0" stop-opacity="0"/></radialGradient><radialGradient id="paint18_radial" cx="0" cy="0" r="1" gradientUnits="userSpaceOnUse" gradientTransform="matrix(-458 0 0 -87.4556 1280 95)"><stop stop-color="#00FF85"/><stop offset="1" stop-color="#CF0" stop-opacity="0"/></radialGradient><filter id="filter0_f" x="-5" y="-5" width="468" height="105" filterUnits="userSpaceOnUse" color-interpolation-filters="sRGB"><feFlood flood-opacity="0" result="BackgroundImageFix"/><feBlend in="SourceGraphic" in2="BackgroundImageFix" result="shape"/><feGaussianBlur stdDeviation="2.5" result="effect1_foregroundBlur"/></filter><filter id="filter1_f" x="817" y="-5" width="468" height="105" filterUnits="userSpaceOnUse" color-interpolation-filters="sRGB"><feFlood flood-opacity="0" result="BackgroundImageFix"/><feBlend in="SourceGraphic" in2="BackgroundImageFix" result="shape"/><feGaussianBlur stdDeviation="2.5" result="effect1_foregroundBlur"/></filter></defs></svg>