<svg width="52" height="52" fill="none" xmlns="http://www.w3.org/2000/svg"><rect opacity=".9" width="52" height="52" rx="5" fill="#2C3143"/><rect opacity=".2" x="1.5" y="1.5" width="49" height="49" rx="3.5" stroke="#000" stroke-width="3"/><g opacity=".1"><path d="M11.364 33L3 49h4.182l8.364-16h-4.182z" fill="url(#paint0_radial)"/><path d="M19.727 33l-8.363 16h4.181l8.364-16h-4.182z" fill="url(#paint1_radial)"/><path d="M28.09 33l-8.363 16h4.182l8.364-16H28.09z" fill="url(#paint2_radial)"/><path d="M36.455 33L28.09 49h4.182l8.363-16h-4.181z" fill="url(#paint3_radial)"/><path d="M44.818 33l-8.363 16h4.181L49 33h-4.182z" fill="url(#paint4_radial)"/></g><g opacity=".1"><path d="M40.636 19L49 3h-4.182l-8.363 16h4.181z" fill="url(#paint5_radial)"/><path d="M32.273 19l8.363-16h-4.181L28.09 19h4.182z" fill="url(#paint6_radial)"/><path d="M23.91 19l8.363-16H28.09l-8.364 16h4.182z" fill="url(#paint7_radial)"/><path d="M15.546 19l8.363-16h-4.182l-8.363 16h4.181z" fill="url(#paint8_radial)"/><path d="M7.182 19l8.364-16h-4.182L3 19h4.182z" fill="url(#paint9_radial)"/></g><g filter="url(#filter0_d)"><path fill-rule="evenodd" clip-rule="evenodd" d="M19.267 15H12.2l-1.762 3.6 2.406 3.276h-1.667l-3.06 4.686 2.645 3.376L8 33.462 12.444 38h23.968L44 32.87l-3.325-3.372-5.981-.706-9.288-5.69h8.962v-6.956H19.94L19.267 15zm2.067 3.518h10.62v2.212h-9.32l-1.3-2.212zm1.38 5.73l6.377 3.907-15.55-1.764-1.257 1.602-1.218-1.555 1.43-2.19h10.218zm11.43 6.868l5.392.637.742.753-4.617 3.121h-22.19l-2.289-2.337 3.439-4.388 19.518 2.214h.005zm-13.625-9.24h-4.698l-2.586-3.52.482-.984h4.156l2.646 4.504z" fill="#FFBC09"/></g><defs><radialGradient id="paint0_radial" cx="0" cy="0" r="1" gradientUnits="userSpaceOnUse" gradientTransform="matrix(23 0 0 16 26 49)"><stop stop-color="#00FF85"/><stop offset="1" stop-color="#CF0" stop-opacity="0"/></radialGradient><radialGradient id="paint1_radial" cx="0" cy="0" r="1" gradientUnits="userSpaceOnUse" gradientTransform="matrix(23 0 0 16 26 49)"><stop stop-color="#00FF85"/><stop offset="1" stop-color="#CF0" stop-opacity="0"/></radialGradient><radialGradient id="paint2_radial" cx="0" cy="0" r="1" gradientUnits="userSpaceOnUse" gradientTransform="matrix(23 0 0 16 26 49)"><stop stop-color="#00FF85"/><stop offset="1" stop-color="#CF0" stop-opacity="0"/></radialGradient><radialGradient id="paint3_radial" cx="0" cy="0" r="1" gradientUnits="userSpaceOnUse" gradientTransform="matrix(23 0 0 16 26 49)"><stop stop-color="#00FF85"/><stop offset="1" stop-color="#CF0" stop-opacity="0"/></radialGradient><radialGradient id="paint4_radial" cx="0" cy="0" r="1" gradientUnits="userSpaceOnUse" gradientTransform="matrix(23 0 0 16 26 49)"><stop stop-color="#00FF85"/><stop offset="1" stop-color="#CF0" stop-opacity="0"/></radialGradient><radialGradient id="paint5_radial" cx="0" cy="0" r="1" gradientUnits="userSpaceOnUse" gradientTransform="matrix(-23 0 0 -16 26 3)"><stop stop-color="#00FF85"/><stop offset="1" stop-color="#CF0" stop-opacity="0"/></radialGradient><radialGradient id="paint6_radial" cx="0" cy="0" r="1" gradientUnits="userSpaceOnUse" gradientTransform="matrix(-23 0 0 -16 26 3)"><stop stop-color="#00FF85"/><stop offset="1" stop-color="#CF0" stop-opacity="0"/></radialGradient><radialGradient id="paint7_radial" cx="0" cy="0" r="1" gradientUnits="userSpaceOnUse" gradientTransform="matrix(-23 0 0 -16 26 3)"><stop stop-color="#00FF85"/><stop offset="1" stop-color="#CF0" stop-opacity="0"/></radialGradient><radialGradient id="paint8_radial" cx="0" cy="0" r="1" gradientUnits="userSpaceOnUse" gradientTransform="matrix(-23 0 0 -16 26 3)"><stop stop-color="#00FF85"/><stop offset="1" stop-color="#CF0" stop-opacity="0"/></radialGradient><radialGradient id="paint9_radial" cx="0" cy="0" r="1" gradientUnits="userSpaceOnUse" gradientTransform="matrix(-23 0 0 -16 26 3)"><stop stop-color="#00FF85"/><stop offset="1" stop-color="#CF0" stop-opacity="0"/></radialGradient><filter id="filter0_d" x="4" y="15" width="44" height="31" filterUnits="userSpaceOnUse" color-interpolation-filters="sRGB"><feFlood flood-opacity="0" result="BackgroundImageFix"/><feColorMatrix in="SourceAlpha" values="0 0 0 0 0 0 0 0 0 0 0 0 0 0 0 0 0 0 127 0"/><feOffset dy="4"/><feGaussianBlur stdDeviation="2"/><feColorMatrix values="0 0 0 0 0 0 0 0 0 0 0 0 0 0 0 0 0 0 0.25 0"/><feBlend in2="BackgroundImageFix" result="effect1_dropShadow"/><feBlend in="SourceGraphic" in2="effect1_dropShadow" result="shape"/></filter></defs></svg>