<svg width="52" height="52" fill="none" xmlns="http://www.w3.org/2000/svg"><rect opacity=".9" width="52" height="52" rx="5" fill="#2C3143"/><rect opacity=".2" x="1.5" y="1.5" width="49" height="49" rx="3.5" stroke="#000" stroke-width="3"/><g opacity=".1"><path d="M11.364 33L3 49h4.182l8.364-16h-4.182z" fill="url(#paint0_radial)"/><path d="M19.727 33l-8.363 16h4.181l8.364-16h-4.182z" fill="url(#paint1_radial)"/><path d="M28.09 33l-8.363 16h4.182l8.364-16H28.09z" fill="url(#paint2_radial)"/><path d="M36.455 33L28.09 49h4.182l8.363-16h-4.181z" fill="url(#paint3_radial)"/><path d="M44.818 33l-8.363 16h4.181L49 33h-4.182z" fill="url(#paint4_radial)"/></g><g opacity=".1"><path d="M40.636 19L49 3h-4.182l-8.363 16h4.181z" fill="url(#paint5_radial)"/><path d="M32.273 19l8.363-16h-4.181L28.09 19h4.182z" fill="url(#paint6_radial)"/><path d="M23.91 19l8.363-16H28.09l-8.364 16h4.182z" fill="url(#paint7_radial)"/><path d="M15.546 19l8.363-16h-4.182l-8.363 16h4.181z" fill="url(#paint8_radial)"/><path d="M7.182 19l8.364-16h-4.182L3 19h4.182z" fill="url(#paint9_radial)"/></g><g filter="url(#filter0_d)"><path d="M26 11.154l5.097 7.155.243.341.4.126 8.38 2.636-5.23 7.059-.25.336.004.42.082 8.783-8.329-2.792-.397-.133-.397.133-8.33 2.792.083-8.783.004-.42-.25-.336-5.23-7.059 8.38-2.636.4-.126.243-.341L26 11.154z" stroke="#FFBC09" stroke-width="2.5"/></g><defs><radialGradient id="paint0_radial" cx="0" cy="0" r="1" gradientUnits="userSpaceOnUse" gradientTransform="matrix(23 0 0 16 26 49)"><stop stop-color="#00FF85"/><stop offset="1" stop-color="#CF0" stop-opacity="0"/></radialGradient><radialGradient id="paint1_radial" cx="0" cy="0" r="1" gradientUnits="userSpaceOnUse" gradientTransform="matrix(23 0 0 16 26 49)"><stop stop-color="#00FF85"/><stop offset="1" stop-color="#CF0" stop-opacity="0"/></radialGradient><radialGradient id="paint2_radial" cx="0" cy="0" r="1" gradientUnits="userSpaceOnUse" gradientTransform="matrix(23 0 0 16 26 49)"><stop stop-color="#00FF85"/><stop offset="1" stop-color="#CF0" stop-opacity="0"/></radialGradient><radialGradient id="paint3_radial" cx="0" cy="0" r="1" gradientUnits="userSpaceOnUse" gradientTransform="matrix(23 0 0 16 26 49)"><stop stop-color="#00FF85"/><stop offset="1" stop-color="#CF0" stop-opacity="0"/></radialGradient><radialGradient id="paint4_radial" cx="0" cy="0" r="1" gradientUnits="userSpaceOnUse" gradientTransform="matrix(23 0 0 16 26 49)"><stop stop-color="#00FF85"/><stop offset="1" stop-color="#CF0" stop-opacity="0"/></radialGradient><radialGradient id="paint5_radial" cx="0" cy="0" r="1" gradientUnits="userSpaceOnUse" gradientTransform="matrix(-23 0 0 -16 26 3)"><stop stop-color="#00FF85"/><stop offset="1" stop-color="#CF0" stop-opacity="0"/></radialGradient><radialGradient id="paint6_radial" cx="0" cy="0" r="1" gradientUnits="userSpaceOnUse" gradientTransform="matrix(-23 0 0 -16 26 3)"><stop stop-color="#00FF85"/><stop offset="1" stop-color="#CF0" stop-opacity="0"/></radialGradient><radialGradient id="paint7_radial" cx="0" cy="0" r="1" gradientUnits="userSpaceOnUse" gradientTransform="matrix(-23 0 0 -16 26 3)"><stop stop-color="#00FF85"/><stop offset="1" stop-color="#CF0" stop-opacity="0"/></radialGradient><radialGradient id="paint8_radial" cx="0" cy="0" r="1" gradientUnits="userSpaceOnUse" gradientTransform="matrix(-23 0 0 -16 26 3)"><stop stop-color="#00FF85"/><stop offset="1" stop-color="#CF0" stop-opacity="0"/></radialGradient><radialGradient id="paint9_radial" cx="0" cy="0" r="1" gradientUnits="userSpaceOnUse" gradientTransform="matrix(-23 0 0 -16 26 3)"><stop stop-color="#00FF85"/><stop offset="1" stop-color="#CF0" stop-opacity="0"/></radialGradient><filter id="filter0_d" x="5.832" y="9" width="40.336" height="38.753" filterUnits="userSpaceOnUse" color-interpolation-filters="sRGB"><feFlood flood-opacity="0" result="BackgroundImageFix"/><feColorMatrix in="SourceAlpha" values="0 0 0 0 0 0 0 0 0 0 0 0 0 0 0 0 0 0 127 0"/><feOffset dy="4"/><feGaussianBlur stdDeviation="2"/><feColorMatrix values="0 0 0 0 0 0 0 0 0 0 0 0 0 0 0 0 0 0 0.25 0"/><feBlend in2="BackgroundImageFix" result="effect1_dropShadow"/><feBlend in="SourceGraphic" in2="effect1_dropShadow" result="shape"/></filter></defs></svg>