<svg width="52" height="52" fill="none" xmlns="http://www.w3.org/2000/svg"><rect opacity=".9" width="52" height="52" rx="5" fill="#2C3143"/><rect opacity=".2" x="1.5" y="1.5" width="49" height="49" rx="3.5" stroke="#000" stroke-width="3"/><g opacity=".1"><path d="M11.364 33L3 49h4.182l8.364-16h-4.182z" fill="url(#paint0_radial)"/><path d="M19.727 33l-8.363 16h4.181l8.364-16h-4.182z" fill="url(#paint1_radial)"/><path d="M28.09 33l-8.363 16h4.182l8.364-16H28.09z" fill="url(#paint2_radial)"/><path d="M36.455 33L28.09 49h4.182l8.363-16h-4.181z" fill="url(#paint3_radial)"/><path d="M44.818 33l-8.363 16h4.181L49 33h-4.182z" fill="url(#paint4_radial)"/></g><g opacity=".1"><path d="M40.636 19L49 3h-4.182l-8.363 16h4.181z" fill="url(#paint5_radial)"/><path d="M32.273 19l8.363-16h-4.181L28.09 19h4.182z" fill="url(#paint6_radial)"/><path d="M23.91 19l8.363-16H28.09l-8.364 16h4.182z" fill="url(#paint7_radial)"/><path d="M15.546 19l8.363-16h-4.182l-8.363 16h4.181z" fill="url(#paint8_radial)"/><path d="M7.182 19l8.364-16h-4.182L3 19h4.182z" fill="url(#paint9_radial)"/></g><path fill-rule="evenodd" clip-rule="evenodd" d="M19.25 27.25v5.25h13.5v-5.25h-13.5zm16-1.732v7.197l.785.785H39.5v-15h-3.25v6.018l-1 1zM34 15l1 1h7v20h-7l-1-1H18l-1 1h-7V16h7l1-1h16zm-5.25 2.5h-5.5v2.25h5.5V17.5zm-8 0v4.75h10.5V17.5h1.715l.785.785v5.197l-1.268 1.268H19.518l-1.268-1.268v-5.197l.785-.785h1.715zm-5 1H12.5v15h3.464l.786-.785v-7.197l-1-1V18.5z" fill="#FFBC09"/><defs><radialGradient id="paint0_radial" cx="0" cy="0" r="1" gradientUnits="userSpaceOnUse" gradientTransform="matrix(23 0 0 16 26 49)"><stop stop-color="#00FF85"/><stop offset="1" stop-color="#CF0" stop-opacity="0"/></radialGradient><radialGradient id="paint1_radial" cx="0" cy="0" r="1" gradientUnits="userSpaceOnUse" gradientTransform="matrix(23 0 0 16 26 49)"><stop stop-color="#00FF85"/><stop offset="1" stop-color="#CF0" stop-opacity="0"/></radialGradient><radialGradient id="paint2_radial" cx="0" cy="0" r="1" gradientUnits="userSpaceOnUse" gradientTransform="matrix(23 0 0 16 26 49)"><stop stop-color="#00FF85"/><stop offset="1" stop-color="#CF0" stop-opacity="0"/></radialGradient><radialGradient id="paint3_radial" cx="0" cy="0" r="1" gradientUnits="userSpaceOnUse" gradientTransform="matrix(23 0 0 16 26 49)"><stop stop-color="#00FF85"/><stop offset="1" stop-color="#CF0" stop-opacity="0"/></radialGradient><radialGradient id="paint4_radial" cx="0" cy="0" r="1" gradientUnits="userSpaceOnUse" gradientTransform="matrix(23 0 0 16 26 49)"><stop stop-color="#00FF85"/><stop offset="1" stop-color="#CF0" stop-opacity="0"/></radialGradient><radialGradient id="paint5_radial" cx="0" cy="0" r="1" gradientUnits="userSpaceOnUse" gradientTransform="matrix(-23 0 0 -16 26 3)"><stop stop-color="#00FF85"/><stop offset="1" stop-color="#CF0" stop-opacity="0"/></radialGradient><radialGradient id="paint6_radial" cx="0" cy="0" r="1" gradientUnits="userSpaceOnUse" gradientTransform="matrix(-23 0 0 -16 26 3)"><stop stop-color="#00FF85"/><stop offset="1" stop-color="#CF0" stop-opacity="0"/></radialGradient><radialGradient id="paint7_radial" cx="0" cy="0" r="1" gradientUnits="userSpaceOnUse" gradientTransform="matrix(-23 0 0 -16 26 3)"><stop stop-color="#00FF85"/><stop offset="1" stop-color="#CF0" stop-opacity="0"/></radialGradient><radialGradient id="paint8_radial" cx="0" cy="0" r="1" gradientUnits="userSpaceOnUse" gradientTransform="matrix(-23 0 0 -16 26 3)"><stop stop-color="#00FF85"/><stop offset="1" stop-color="#CF0" stop-opacity="0"/></radialGradient><radialGradient id="paint9_radial" cx="0" cy="0" r="1" gradientUnits="userSpaceOnUse" gradientTransform="matrix(-23 0 0 -16 26 3)"><stop stop-color="#00FF85"/><stop offset="1" stop-color="#CF0" stop-opacity="0"/></radialGradient></defs></svg>