<svg width="26" height="26" fill="none" xmlns="http://www.w3.org/2000/svg"><path fill-rule="evenodd" clip-rule="evenodd" d="M22.428 10.018l-.657-1.593a29.018 29.018 0 001.392-3.654l-2.021-2.015a27.475 27.475 0 00-3.588 1.466l-1.59-.655A28.97 28.97 0 0014.367 0h-2.852a27.343 27.343 0 00-1.498 3.575l-1.594.657a29.163 29.163 0 00-3.649-1.39L2.757 4.86a27.48 27.48 0 001.466 3.587l-.656 1.59c-1.222.45-2.413.982-3.567 1.592v2.854a27.295 27.295 0 003.576 1.501l.656 1.588a29.435 29.435 0 00-1.393 3.651l2.02 2.02a28.043 28.043 0 003.586-1.469l1.591.658A28.757 28.757 0 0011.634 26h2.853a27.52 27.52 0 001.499-3.574l1.592-.658a29.417 29.417 0 003.647 1.395l2.02-2.02a27.262 27.262 0 00-1.469-3.586l.655-1.59a29.049 29.049 0 003.569-1.6v-2.855a27.484 27.484 0 00-3.572-1.495zm-4.47 3.621a5.16 5.16 0 01-1.135 2.742 4.99 4.99 0 01-2.44 1.63 4.898 4.898 0 01-2.914-.039A4.998 4.998 0 019.07 16.28a5.193 5.193 0 01-.437-5.677 5.045 5.045 0 012.11-2.054 4.907 4.907 0 012.874-.503 4.927 4.927 0 013.302 1.88 5.132 5.132 0 011.04 3.713z" fill="#fff"/></svg>