<svg width="77" height="23" fill="none" xmlns="http://www.w3.org/2000/svg"><g opacity=".1"><path d="M8.105 0L0 23h4.053l8.105-23H8.105z" fill="url(#paint0_radial)"/><path d="M16.21 0L8.105 23h4.053l8.105-23H16.21z" fill="url(#paint1_radial)"/><path d="M24.316 0L16.21 23h4.052l8.105-23h-4.052z" fill="url(#paint2_radial)"/><path d="M32.421 0l-8.105 23h4.052l8.106-23H32.42z" fill="url(#paint3_radial)"/><path d="M40.526 0l-8.105 23h4.053l8.105-23h-4.053z" fill="url(#paint4_radial)"/><path d="M48.632 0l-8.106 23h4.053l8.105-23h-4.052z" fill="url(#paint5_radial)"/><path d="M56.737 0l-8.105 23h4.052L60.79 0h-4.052z" fill="url(#paint6_radial)"/><path d="M64.842 0l-8.105 23h4.052l8.106-23h-4.053z" fill="url(#paint7_radial)"/><path d="M72.947 0l-8.105 23h4.053L77 0h-4.053z" fill="url(#paint8_radial)"/></g><defs><radialGradient id="paint0_radial" cx="0" cy="0" r="1" gradientUnits="userSpaceOnUse" gradientTransform="matrix(39.5 0 0 19.0714 38.5 11.5)"><stop offset=".193"/><stop offset="1" stop-opacity="0"/></radialGradient><radialGradient id="paint1_radial" cx="0" cy="0" r="1" gradientUnits="userSpaceOnUse" gradientTransform="matrix(39.5 0 0 19.0714 38.5 11.5)"><stop offset=".193"/><stop offset="1" stop-opacity="0"/></radialGradient><radialGradient id="paint2_radial" cx="0" cy="0" r="1" gradientUnits="userSpaceOnUse" gradientTransform="matrix(39.5 0 0 19.0714 38.5 11.5)"><stop offset=".193"/><stop offset="1" stop-opacity="0"/></radialGradient><radialGradient id="paint3_radial" cx="0" cy="0" r="1" gradientUnits="userSpaceOnUse" gradientTransform="matrix(39.5 0 0 19.0714 38.5 11.5)"><stop offset=".193"/><stop offset="1" stop-opacity="0"/></radialGradient><radialGradient id="paint4_radial" cx="0" cy="0" r="1" gradientUnits="userSpaceOnUse" gradientTransform="matrix(39.5 0 0 19.0714 38.5 11.5)"><stop offset=".193"/><stop offset="1" stop-opacity="0"/></radialGradient><radialGradient id="paint5_radial" cx="0" cy="0" r="1" gradientUnits="userSpaceOnUse" gradientTransform="matrix(39.5 0 0 19.0714 38.5 11.5)"><stop offset=".193"/><stop offset="1" stop-opacity="0"/></radialGradient><radialGradient id="paint6_radial" cx="0" cy="0" r="1" gradientUnits="userSpaceOnUse" gradientTransform="matrix(39.5 0 0 19.0714 38.5 11.5)"><stop offset=".193"/><stop offset="1" stop-opacity="0"/></radialGradient><radialGradient id="paint7_radial" cx="0" cy="0" r="1" gradientUnits="userSpaceOnUse" gradientTransform="matrix(39.5 0 0 19.0714 38.5 11.5)"><stop offset=".193"/><stop offset="1" stop-opacity="0"/></radialGradient><radialGradient id="paint8_radial" cx="0" cy="0" r="1" gradientUnits="userSpaceOnUse" gradientTransform="matrix(39.5 0 0 19.0714 38.5 11.5)"><stop offset=".193"/><stop offset="1" stop-opacity="0"/></radialGradient></defs></svg>