<svg width="45" height="43" fill="none" xmlns="http://www.w3.org/2000/svg"><g opacity=".964" filter="url(#filter0_d)"><path d="M20.737 11l-9.13 6.47L11 19.677l3.665 11.001L17.013 32h10.974l2.348-1.322 3.665-11-.607-2.208-9.13-6.47h-3.526zm.557 1.89h2.412l7.857 5.569.384 1.395-3.14 9.423-1.551.873h-9.512l-1.551-.873-3.14-9.423.384-1.395 7.857-5.568zm1.246 1.923a1.43 1.43 0 00-.867.261l-5.772 4.09c-.24.17-.42.41-.511.686a1.339 1.339 0 000 .848l2.205 6.617c.091.276.27.516.51.686.241.17.53.262.828.262h7.134c.297 0 .587-.091.827-.262.24-.17.42-.41.511-.686l2.205-6.617a1.339 1.339 0 000-.848 1.374 1.374 0 00-.51-.686l-5.773-4.09a1.43 1.43 0 00-.787-.261zm-.04 3.067l4.119 2.918-1.573 4.721h-5.092l-1.573-4.721 4.12-2.918z" fill="#FC0"/></g><defs><filter id="filter0_d" x=".182" y=".182" width="44.635" height="42.635" filterUnits="userSpaceOnUse" color-interpolation-filters="sRGB"><feFlood flood-opacity="0" result="BackgroundImageFix"/><feColorMatrix in="SourceAlpha" values="0 0 0 0 0 0 0 0 0 0 0 0 0 0 0 0 0 0 127 0"/><feOffset/><feGaussianBlur stdDeviation="5.409"/><feColorMatrix values="0 0 0 0 1 0 0 0 0 0.556235 0 0 0 0 0.0352941 0 0 0 0.5 0"/><feBlend in2="BackgroundImageFix" result="effect1_dropShadow"/><feBlend in="SourceGraphic" in2="effect1_dropShadow" result="shape"/></filter></defs></svg>