<svg width="85" height="76" fill="none" xmlns="http://www.w3.org/2000/svg"><path fill-rule="evenodd" clip-rule="evenodd" d="M45.056 10.23l30.676 52.616c1.136 1.949-.284 4.385-2.557 4.385h-61.35c-2.273 0-3.693-2.436-2.557-4.385l30.676-52.615c1.136-1.949 3.976-1.949 5.112 0zM32.275 5.847c4.544-7.795 15.906-7.795 20.45 0l30.676 52.616C87.945 66.255 82.264 76 73.175 76h-61.35c-9.09 0-14.77-9.744-10.226-17.538L32.275 5.846zm7.14 44.4h6.274L47 24h-8.897l1.311 26.246zm-.258 5.776c-.771.77-1.157 1.907-1.157 3.411 0 1.45.394 2.58 1.183 3.385.788.788 1.903 1.182 3.343 1.182 1.405 0 2.503-.403 3.291-1.209.789-.824 1.183-1.943 1.183-3.358 0-1.468-.394-2.597-1.183-3.385-.771-.788-1.868-1.182-3.291-1.182-1.475 0-2.597.385-3.369 1.156z" fill="#DB5553"/></svg>