<svg width="20" height="14" fill="none" xmlns="http://www.w3.org/2000/svg"><path fill-rule="evenodd" clip-rule="evenodd" d="M13.961 9.67c1.933 0 3.586-.512 4.703-1.654a5.121 5.121 0 001.025-1.72 5.37 5.37 0 00.307-2.01c0-1.539-.623-2.236-1.546-3.027C17.483.419 16.044 0 14.026 0H8.5L6.313 4.984 3.758 0H0l4.188 7.271L0 14h3.737L6.1 9.555 8.7 14h4.131L9.602 9.372v.06l-.386-.613-.124-.178v-.018l-.91-1.446 1.42-2.456v2.546l3.242 4.82V9.602c.37.05.744.074 1.117.07zm-1.117-6.828c.945-.188 3.909-.609 3.909 1.537 0 2.74-2.748 2.672-3.909 2.49V2.842z" fill="#fff"/></svg>